/* XPM */
static char *result[] = {
/* columns rows colors chars-per-pixel */
"32 32 3 1 ",
"  c #C0D470",
". c #78A158",
"X c white",
/* pixels */
"                                ",
"                                ",
"                                ",
"                                ",
"                                ",
"                                ",
"                        ..      ",
"                        ..      ",
"                      ..        ",
"                      ..        ",
"                      ..        ",
"                      ..        ",
"        ..                      ",
"        ..                      ",
"          ..                    ",
"          ..                    ",
"          ..        ..          ",
"          ..        ..          ",
"                  ..            ",
"                  ..            ",
"                  ..            ",
"                  ..            ",
"                                ",
"                                ",
"                                ",
"                                ",
"                                ",
"                                ",
"                                ",
"                                ",
"                                ",
"                                ",
};
