/* XPM */
static char *f73cbc62a5e94f09c6b63dbf1d19afbf1dsZ7DCm2iEiJJRb[] = {
/* columns rows colors chars-per-pixel */
"32 32 11 1 ",
"  c None",
". c black",
"X c gray17",
"o c #8A4A70",
"O c #A35B70",
"+ c #AF6776",
"@ c #BD757E",
"# c #A18706",
"$ c #FFD42D",
"% c #D99A9A",
"& c #E8B5AC",
/* pixels */
"                                ",
"                                ",
"                                ",
"                                ",
"      ++++++++    OOOOOOOO      ",
"      ++++++++    OOOOOOOO      ",
"      ++++++++    OOOOOOOO      ",
"      ++++++++    OOOOOOOO      ",
"  ++++&&&&%%%$$$$$$@@@@@@@oooo  ",
"  ++++&&&&%%$######$@@@@@@oooo  ",
"  ++++&&&&%$########$@@@@@oooo  ",
"  +++XXX&&%$###..###$@@@XXXooo  ",
"  XOXXXXX%X$##....##$X@XXXXXoX  ",
"  XXXO%%XXX$##....##$XXX@@oXXX  ",
"  XOXXXXX%X$##....##$X@XXXXXoX  ",
"  OOOXXX%%@$###..###$@@@XXXooo  ",
"      OOOO@$###..###$+oooo      ",
"      OOOO@$##....##$+oooo      ",
"      OOOO@$#......#$+oooo      ",
"      OOOO@$########$+oooo      ",
"          OO$######$oo          ",
"          OOO$$$$$$ooo          ",
"          OOOO++++oooo          ",
"          OOOO++++oooo          ",
"              oooo              ",
"              oooo              ",
"              oooo              ",
"              oooo              ",
"                                ",
"                                ",
"                                ",
"                                "
};
