/* XPM */
static char *_66be70628e14355ce711f5eea23d757jGxVRbCUpU7UJAwo[] = {
/* columns rows colors chars-per-pixel */
"32 32 7 1 ",
"  c None",
". c #8A4A70",
"X c #A35B70",
"o c #AF6776",
"O c #BD757E",
"+ c #D99A9A",
"@ c #E8B5AC",
/* pixels */
"                                ",
"                                ",
"                                ",
"                                ",
"      oooooooo    XXXXXXXX      ",
"      oooooooo    XXXXXXXX      ",
"      oooooooo    XXXXXXXX      ",
"      oooooooo    XXXXXXXX      ",
"  oooo@@@@++++ooooOOOOOOOO....  ",
"  oooo@@@@++++ooooOOOOOOOO....  ",
"  oooo@@@@++++ooooOOOOOOOO....  ",
"  oooo@@@@++++ooooOOOOOOOO....  ",
"  XXXX++++OOOOOOOOOOOOOOOO....  ",
"  XXXX++++OOOOOOOOOOOOOOOO....  ",
"  XXXX++++OOOOOOOOOOOOOOOO....  ",
"  XXXX++++OOOOOOOOOOOOOOOO....  ",
"      XXXXOOOOOOOOoooo....      ",
"      XXXXOOOOOOOOoooo....      ",
"      XXXXOOOOOOOOoooo....      ",
"      XXXXOOOOOOOOoooo....      ",
"          XXXXoooo....          ",
"          XXXXoooo....          ",
"          XXXXoooo....          ",
"          XXXXoooo....          ",
"              ....              ",
"              ....              ",
"              ....              ",
"              ....              ",
"                                ",
"                                ",
"                                ",
"                                "
};
