/* XPM */
static char *_dcb2221478742e9f82db338eab3f9e3lEo4ZuOuaGQOoFxf[] = {
/* columns rows colors chars-per-pixel */
"32 32 9 1 ",
"  c None",
". c black",
"X c #1E211D",
"o c #2D2E27",
"O c #33382F",
"+ c #3E433E",
"@ c #757867",
"# c #B596AC",
"$ c #BCE3CE",
/* pixels */
"                $$              ",
"                $$              ",
"  ooo           oo         ooo  ",
"  ooo           oo         ooo  ",
"oo       oooooooooooooo       oo",
"oo       oooooooooooooo       oo",
"oo     ooXXXXXOOooXXXXXoo     oo",
"oo     ooXXXXXOOooXXXXXoo     oo",
"oo     ooXXXXXOOooXXXXXoo     oo",
"oo   ooXX..+++oooo+++..XXoo   oo",
"oo   ooXX..+++oooo+++..XXoo   oo",
"ooooo++XX..++++++++++..XX++ooooo",
"ooooo++XX..++++++++++..XX++ooooo",
"  ooo++..XXXXXXXXXXXXXX..++ooo  ",
"  ooo++..XXXXXXXXXXXXXX..++ooo  ",
"  ooo......................ooo  ",
"  ooo......................ooo  ",
"  ooo......................ooo  ",
"  ooo......................ooo  ",
"  ooo....$$..........$$....ooo  ",
"  ooo....$$..........$$....ooo  ",
"  ooo....XX..........XX....ooo  ",
"  ooo....XX..........XX....ooo  ",
"  ooo++####.....@@...####++ooo  ",
"  ooo++####.....@@...####++ooo  ",
"  ooo++####.....@@...####++ooo  ",
"     oo++..............++oo     ",
"     oo++..............++oo     ",
"       oooooooooooooooooo       ",
"       oooooooooooooooooo       ",
"     oooo              oooo     ",
"     oooo              oooo     "
};
