/* XPM */
static char *result[] = {
/* columns rows colors chars-per-pixel */
"32 32 44 1 ",
"  c black",
". c #010101",
"X c #010301",
"o c #020202",
"O c #020302",
"+ c gray1",
"@ c #020402",
"# c #030403",
"$ c #030503",
"% c #040204",
"& c #040304",
"* c #040404",
"= c #040504",
"- c gray2",
"; c #040604",
": c #040704",
"> c #050605",
", c #060606",
"< c #060706",
"1 c #070707",
"2 c gray3",
"3 c #090909",
"4 c gray4",
"5 c #0B0B0B",
"6 c #111111",
"7 c gray11",
"8 c #1E1E1E",
"9 c #2D2D2D",
"0 c gray25",
"q c gray29",
"w c #5D5D5D",
"e c #626262",
"r c #676767",
"t c gray55",
"y c #8E8E8E",
"u c #9D9D9D",
"i c gray64",
"p c #A9A9A9",
"a c #AEAEAE",
"s c #DDDDDD",
"d c gray95",
"f c gray96",
"g c white",
"h c None",
/* pixels */
"hhhhhhhhhhhhhhhhhhhhhhhhhhhhhhhh",
"hhhhhhhhhhhhhhhhhhhhhhhhhhhhhhhh",
"hhhhhhhhhhhhhhhhhhhhhhhhhhhhhhhh",
"hhhhhhhhhhhhhhhhhhhhhhhhhhhhhhhh",
"hhhhhhhhhhhhhhhhhhhhhhhhhhhhhhhh",
"hhhhhhhhhhhhhhhhhhhhhhhhhhhhhhhh",
"hhhhhhhhhhhhh44,6--- 5hhhhhhhhhh",
"hhhhhhhhhhh,444,----  55hhhhhhhh",
"hhhhhhhhh2o2444,,44,,,,hhhhhhhhh",
"hhhhhhhho222,,,,,444,,,hhhhhhhhh",
"hhhhhhh-2222,,,,44441111hhhhhhhh",
"hhhhhhh 22oo,,4444441119yhhhhhhh",
"hhhhhho ,,,,,,,,  ear83wghhhhhhh",
"hhhhhh o4,,,,, , eggdr3wgghhhhhh",
"hhhhhh 2,,,,,  , aggdd3wg7hhhhhh",
"hhhhhh 2,, ,,,,, gggp830gqhhhhhh",
"hhhhhh -,,,,1<>;6gggi666thhhhhhh",
"hhhhhh--,,,,,>=$6sggff66..hhhhhh",
"hhhhhh--4,,,-=#@6uggfi66..hhhhhh",
"hhhhhhh ,,,,*#OX66usi666..hhhhhh",
"hhhhhhh*++++++++*=;:++++  hhhhhh",
"hhhhhhhh +++++++&*=;++++ hhhhhhh",
"hhhhhhhhh+++++++&*=;++++ hhhhhhh",
"hhhhhhhhhh++++++%&*=++++hhhhhhhh",
"hhhhhhhhhhh,oooooooo hhhhhhhhhhh",
"hhhhhhhhhhhho22hohhhhhhhhhhhhhhh",
"hhhhhhhhhhhhhhhhhhhhhhhhhhhhhhhh",
"hhhhhhhhhhhhhhhhhhhhhhhhhhhhhhhh",
"hhhhhhhhhhhhhhhhhhhhhhhhhhhhhhhh",
"hhhhhhhhhhhhhhhhhhhhhhhhhhhhhhhh",
"hhhhhhhhhhhhhhhhhhhhhhhhhhhhhhhh",
"hhhhhhhhhhhhhhhhhhhhhhhhhhhhhhhh"
};
