/* XPM */
static char *_eaccf68cfce44edf627f2d29e058093Pg1FqNojPF28rRr0[] = {
/* columns rows colors chars-per-pixel */
"32 32 6 1 ",
"  c None",
". c #5F7A79",
"X c #6E967C",
"o c #97BB8E",
"O c #AED499",
"+ c #C2E09A",
/* pixels */
"          ............          ",
"          ............          ",
"      ....ooOO++++OOoo....      ",
"      ....ooOO++++OOoo....      ",
"    ..ooOOOOOO++++OOOOOOoo..    ",
"    ..ooOOOOOO++++OOOOOOoo..    ",
"  ..ooOO++++OOOO++++++OOOOoo..  ",
"  ..ooOO++++OOOO++++++OOOOoo..  ",
"  ..OOOO++++OOOO++++++OOOOoo..  ",
"  ..OOOO++++OOOO++++++OOOOoo..  ",
"..ooOOOOOOOOOOOOOOOOOOOOOOOOoo..",
"..ooOOOOOOOOOOOOOOOOOOOOOOOOoo..",
"..ooooOOOOooOOOOOOOOooooOOoooo..",
"..ooooOOOOooOOOOOOOOooooOOoooo..",
"..ooooooooooooooOOooOOOOoooo..  ",
"..ooooooooooooooOOooOOOOoooo..  ",
"  ..ooooOOOOoooooooooooooooooo..",
"  ..ooooOOOOoooooooooooooooooo..",
"..XXooooooooooooooooooooooooXX..",
"..XXooooooooooooooooooooooooXX..",
"..XXXXooXXooXXXXooooooXXXXXXXX..",
"..XXXXooXXooXXXXooooooXXXXXXXX..",
"..XXXXXXXXXXooooooXXXXooooXXXX..",
"..XXXXXXXXXXooooooXXXXooooXXXX..",
"  ..XXooooXXXXXXXXXXXXXXXXXX..  ",
"  ..XXooooXXXXXXXXXXXXXXXXXX..  ",
"    XXXXXXXXXXXXXXXXXXXXXXXX    ",
"    XXXXXXXXXXXXXXXXXXXXXXXX    ",
"        XXXXXXXXXXXXXXXX        ",
"        XXXXXXXXXXXXXXXX        ",
"                                ",
"                                "
};
