/* XPM */
static char *_f59bfb0121c4d7cc0f946ba6c225bacCRLz1voJ6sesWF2C[] = {
/* columns rows colors chars-per-pixel */
"32 32 10 1 ",
"  c None",
". c #5F7A79",
"X c #8A4A70",
"o c #A35B70",
"O c #BD757E",
"+ c #6E967C",
"@ c #97BB8E",
"# c #D99A9A",
"$ c #AED499",
"% c #C2E09A",
/* pixels */
"          ............          ",
"          ............          ",
"      ....@@$$%%%%$$@@....      ",
"      ....@@$$%%%%$$@@....      ",
"    ..@@$$$$$$%%%%$$$$$$@@..    ",
"    ..@@$$$$$$%%%%$$$$$$@@..    ",
"  ..@@$$%%%%$$$$%%%%%%$$$$@@..  ",
"  ..@@$$%%%%$$$$%%%%%%$$$$@@..  ",
"  ..$$$$%%%%$$$$%%ooooooXX@@..  ",
"  ..$$$$%%%%$$$$%%ooooooXX@@..  ",
"..@@$$$$$$$$$$$$$$oo##OOXX$$@@..",
"..@@$$$$$$$$$$$$$$oo##OOXX$$@@..",
"..@@@@ooooooXX$$$$XXOOOOXX@@@@..",
"..@@@@ooooooXX$$$$XXOOOOXX@@@@..",
"..@@@@oo##OOXX@@$$@@XXXX@@@@..  ",
"..@@@@oo##OOXX@@$$@@XXXX@@@@..  ",
"  ..@@XXOOOOXX@@@@@@@@@@@@@@@@..",
"  ..@@XXOOOOXX@@@@@@@@@@@@@@@@..",
"..++@@@@XXXX@@@@@@@@@@@@@@@@++..",
"..++@@@@XXXX@@@@@@@@@@@@@@@@++..",
"..++++@@++@@++ooooooXX++++++++..",
"..++++@@++@@++ooooooXX++++++++..",
"..++++++++++@@oo##OOXX@@@@++++..",
"..++++++++++@@oo##OOXX@@@@++++..",
"  ..++@@@@++++XXOOOOXX++++++..  ",
"  ..++@@@@++++XXOOOOXX++++++..  ",
"    ++++++++++++XXXX++++++++    ",
"    ++++++++++++XXXX++++++++    ",
"        ++++++++++++++++        ",
"        ++++++++++++++++        ",
"                                ",
"                                "
};
