/* XPM */
static char *ae0409d274a6410fbc5329bff6f2b00bHNtXP0ZuiNialYHr[] = {
/* columns rows colors chars-per-pixel */
"32 32 16 1 ",
"  c None",
". c black",
"X c #010000",
"o c #000001",
"O c #78A058",
"+ c #78A158",
"@ c #79A158",
"# c #78A059",
"$ c #78A159",
"% c #79A159",
"& c #C0D470",
"* c #C1D470",
"= c #C0D570",
"- c #C0D471",
"; c #C1D471",
": c #C0D571",
/* pixels */
"                                ",
"                                ",
"                                ",
"                                ",
"     ++++++++++++++++++++++     ",
"    ++++++++++++++++++++++++    ",
"    ++;;*&&&;-&=;&&&-&&&;&++    ",
"    ++--&&&&&&;.&&&&&&&--&++    ",
"    ++&&&&&&&.=;;.&&&&&-&&++    ",
"    ++&&&&&-*-;.*&&&&&*&&&++    ",
"    ++-&&&-*&&...;*&&&&&&&++    ",
"    ++-*&-&&;.....&&&&&&&&++    ",
"    ++*&&&-&&-.;.*&&&&&&&*++    ",
"    ++&&&&&&&&&&;=&&&-&&&;++    ",
"    ++;&&&&&&&&=&&&&&==&&-++    ",
"    ++***&&&&&-&-&&&&*=&-&++    ",
"    ++-&&&&&*&&&*&&&*&&&&=++    ",
"    ++&&&&&&&&-&-&&&&&&&&*++    ",
"    ++&&&&&&&&&&&&&&&&&&&;++    ",
"    ++&&&&&&-&*&&&&&&&&&&&++    ",
"    ++*&&&=&*&*&&&-&&-&&&-++    ",
"    ++*&&&&*&&&&=&&;&&&&&;++    ",
"    ++&&-&&&;-*&&&&*&&&&&&++    ",
"    ++&&&&*=&-&&&&&&&-&&&&++    ",
"    ++;&&&-&-*-&&&&&*&&*&&++    ",
"    ++&&*;-&&&-;&;&&&&&;&&++    ",
"    ++++++++++++++++++++++++    ",
"     ++++++++++++++++++++++     ",
"                                ",
"                                ",
"                                ",
"                                "
};
