/* XPM */
static char *result[] = {
/* columns rows colors chars-per-pixel */
"16 16 10 1 ",
"  c #5F7A79",
". c #8A4A70",
"X c #A35B70",
"o c #AF6776",
"O c #BD757E",
"+ c #6E967C",
"@ c #82A884",
"# c #D99A9A",
"$ c #E8B5AC",
"% c None",
/* pixels */
"%%%%%%%%%%%%%%%%",
"%%%%%%%%%%%%%%%%",
"%%%%%%%%%%%%%%%%",
"%%%%%%%%%%%%%%%%",
"%%%%%%%%   %%%%%",
"%%%%%%% @@ %%%%%",
"%%%%%% ++@ %%%%%",
"%%%%%oo XX%%%%%%",
"%%%%o$#oOO.%%%%%",
"%%%%X#OOOO.%%%%%",
"%%%%%XOoO.%%%%%%",
"%%%%%%...%%%%%%%",
"%%%%%%%%%%%%%%%%",
"%%%%%%%%%%%%%%%%",
"%%%%%%%%%%%%%%%%",
"%%%%%%%%%%%%%%%%"
};
