/* XPM */
static char *result[] = {
/* columns rows colors chars-per-pixel */
"16 16 10 1 ",
"  c #5F7A79",
". c #8A4A70",
"X c #A35B70",
"o c #BD757E",
"O c #6E967C",
"+ c #97BB8E",
"@ c #D99A9A",
"# c #AED499",
"$ c #C2E09A",
"% c None",
/* pixels */
"%%%%%      %%%%%",
"%%%  +#$$#+  %%%",
"%% +###$$###+ %%",
"% +#$$##$$$##+ %",
"% ##$$##$XXX.+ %",
" +#######X@o.#+ ",
" ++XXX.##.oo.++ ",
" ++X@o.+#+..++ %",
"% +.oo.++++++++ ",
" O++..++++++++O ",
" OO+O+OXXX.OOOO ",
" OOOOO+X@o.++OO ",
"% O++OO.oo.OOO %",
"%%OOOOOO..OOOO%%",
"%%%%OOOOOOOO%%%%",
"%%%%%%%%%%%%%%%%"
};
