/* XPM */
static char *result[] = {
/* columns rows colors chars-per-pixel */
"16 16 3 1 ",
"  c #C0D470",
". c #78A158",
"X c white",
/* pixels */
"                ",
"                ",
"  . .           ",
"   .            ",
"                ",
"                ",
"                ",
"                ",
"                ",
"          . .   ",
"           .    ",
"                ",
"                ",
"    . .         ",
"     .          ",
"                "
};
