/* XPM */
static char *result[] = {
/* columns rows colors chars-per-pixel */
"16 16 7 1 ",
"  c #8A4A70",
". c #A35B70",
"X c #AF6776",
"o c #BD757E",
"O c #D99A9A",
"+ c #E8B5AC",
"@ c None",
/* pixels */
"@@@@@@@@@@@@@@@@",
"@@@@@@@@@@@@@@@@",
"@@@@@@@@@@@@@@@@",
"@@@@@@@@@@@@@@@@",
"@@@@@@@@@@@@@@@@",
"@@@@@@@@@@@@@@@@",
"@@@@@@@@@@@@@@@@",
"@@@@@XX@..@@@@@@",
"@@@@X+OXoo @@@@@",
"@@@@.Ooooo @@@@@",
"@@@@@.oXo @@@@@@",
"@@@@@@   @@@@@@@",
"@@@@@@@@@@@@@@@@",
"@@@@@@@@@@@@@@@@",
"@@@@@@@@@@@@@@@@",
"@@@@@@@@@@@@@@@@"
};
